<svg width="148" height="136" viewBox="0 0 148 136" fill="none" xmlns="http://www.w3.org/2000/svg">
<path fill-rule="evenodd" clip-rule="evenodd" d="M105.501 32C105.501 49.397 91.3978 63.5 74.0008 63.5C56.6038 63.5 42.5008 49.397 42.5008 32C42.5008 14.603 56.6038 0.5 74.0008 0.5C91.3978 0.5 105.501 14.603 105.501 32ZM95.0008 32C95.0008 43.598 85.5988 53 74.0008 53C62.4028 53 53.0008 43.598 53.0008 32C53.0008 20.402 62.4028 11 74.0008 11C85.5988 11 95.0008 20.402 95.0008 32Z" fill="#4F53C5"/>
<path d="M74.0008 79.25C40.0103 79.25 11.0495 99.3492 0.0175781 127.508C2.70503 130.177 5.53605 132.701 8.49805 135.068C16.7129 109.215 42.4836 89.75 74.0008 89.75C105.518 89.75 131.289 109.215 139.504 135.068C142.466 132.701 145.297 130.177 147.984 127.508C136.952 99.3492 107.991 79.25 74.0008 79.25Z" fill="#4F53C5"/>
</svg>
