<svg width="19" height="19" viewBox="0 0 19 19" fill="none" xmlns="http://www.w3.org/2000/svg">
<path d="M8.85078 16.7086H4.35077C3.35666 16.7085 2.55077 15.9027 2.55078 14.9085L2.55085 4.10858C2.55086 3.11448 3.35674 2.30859 4.35085 2.30859H12.451C13.4452 2.30859 14.2511 3.11448 14.2511 4.10859V7.70859M13.8008 13.5203V13.473M5.70106 5.90859H11.1011M5.70106 8.60859H11.1011M5.70106 11.3086H8.40106M16.9508 13.5586C16.9508 13.5586 16.2037 15.7633 13.8008 15.7248C11.3979 15.6863 10.6508 13.5586 10.6508 13.5586C10.6508 13.5586 11.3676 11.3153 13.8008 11.3153C16.234 11.3153 16.9508 13.5586 16.9508 13.5586Z" stroke="#475569" stroke-width="2" stroke-linecap="round" stroke-linejoin="round"/>
</svg>
