<svg width="30" height="30" viewBox="0 0 30 30" fill="none" xmlns="http://www.w3.org/2000/svg">
<g clip-path="url(#clip0_4250_14705)">
<path fill-rule="evenodd" clip-rule="evenodd" d="M3.08402 0.941443C3.68681 0.338646 4.50439 0 5.35686 0H18.214C18.4982 0 18.7707 0.112882 18.9716 0.313815L27.5431 8.88525C27.7439 9.08616 27.8569 9.35869 27.8569 9.64286V26.7857C27.8569 27.6381 27.5183 28.4559 26.9155 29.0586C26.3127 29.6614 25.495 30 24.6426 30H5.35686C4.50437 30 3.68681 29.6614 3.08402 29.0586C2.48124 28.4559 2.14258 27.6381 2.14258 26.7857V3.21429C2.14258 2.36181 2.48124 1.54424 3.08402 0.941443ZM13.0193 7.21519C13.1901 7.94016 13.2535 8.90503 13.2522 9.94622C14.727 12.3026 17.1416 15.2389 19.1583 17.0821C20.0909 17.0195 20.9964 17.0407 21.7084 17.2327C22.1284 17.3459 22.7057 17.5763 23.0946 18.1049C23.5553 18.7312 23.5294 19.4511 23.3076 20.0242C23.0841 20.6022 22.6322 21.0935 21.9529 21.2763C21.3656 21.4344 20.8029 21.306 20.3923 21.1561C19.7142 20.9085 18.9881 20.4275 18.2826 19.861C16.1159 20.143 13.4234 20.8398 11.4517 21.6317C11.1717 22.4128 10.8324 23.1416 10.4124 23.6642C10.1505 23.9901 9.73378 24.3924 9.13232 24.5394C8.44104 24.7084 7.82278 24.4701 7.37814 24.0973C6.93782 23.7283 6.56625 23.1534 6.62031 22.4141C6.66776 21.765 7.02913 21.2781 7.32491 20.9713C7.80156 20.4769 8.50502 20.0445 9.26301 19.6724C9.97361 17.138 10.4803 13.4489 10.562 10.6714C10.0851 9.84729 9.69478 9.04116 9.49161 8.34062C9.37884 7.95174 9.28759 7.47709 9.35076 7.00106C9.42135 6.46892 9.70708 5.86211 10.3694 5.53491C10.6588 5.39196 11.0414 5.29532 11.4682 5.37977C11.8916 5.46354 12.2015 5.69454 12.4061 5.91981C12.7695 6.31989 12.9312 6.84139 13.0193 7.21519ZM12.982 14.2159C13.8765 15.3767 14.8609 16.5346 15.8358 17.563C14.6562 17.8066 13.4397 18.124 12.3043 18.4857C12.5886 17.1315 12.8194 15.6546 12.982 14.2159Z" fill="#F14848"/>
</g>
<defs>
<clipPath id="clip0_4250_14705">
<rect width="30" height="30" fill="white"/>
</clipPath>
</defs>
</svg>
