<svg width="24" height="32" viewBox="0 0 24 32" fill="none" xmlns="http://www.w3.org/2000/svg">
<path fill-rule="evenodd" clip-rule="evenodd" d="M3.15527 21.7992L7.62077 21.3734L16.0208 12.5671L11.9768 8.32969L3.55127 17.1549L3.15527 21.7992ZM13.9857 6.22625L18.0282 10.4605L20.9487 7.39676L16.9077 3.16406L13.9857 6.22625ZM0.439344 24.6447C0.124344 24.3148 -0.033156 23.856 0.00584403 23.3909L0.574344 16.8392C0.637344 16.1212 0.940344 15.444 1.42934 14.9318L14.9233 0.79768C15.9763 -0.309986 17.8858 -0.254996 18.9973 0.90609L23.1043 5.20792L23.1058 5.20949C24.2533 6.413 24.2998 8.32667 23.2078 9.47361L9.71235 23.6093C9.22484 24.1199 8.57835 24.4373 7.89135 24.5033L1.63634 25.0988C1.59134 25.1019 1.54634 25.1035 1.49984 25.1035C1.10534 25.1035 0.722844 24.9401 0.439344 24.6447ZM24 29.8133C24 30.6775 23.325 31.3845 22.5 31.3845H1.5C0.6765 31.3845 0 30.6775 0 29.8133C0 28.9508 0.6765 28.2422 1.5 28.2422H22.5C23.325 28.2422 24 28.9508 24 29.8133Z" fill="#4F53C5"/>
</svg>
