<svg width="15" height="14" viewBox="0 0 15 14" fill="none" xmlns="http://www.w3.org/2000/svg">
<path fill-rule="evenodd" clip-rule="evenodd" d="M7.86914 4.83945C6.48906 4.83945 5.37028 5.92634 5.37028 7.26709C5.37028 8.60784 6.48906 9.69473 7.86914 9.69473C9.24922 9.69473 10.368 8.60784 10.368 7.26709C10.368 5.92634 9.24922 4.83945 7.86914 4.83945ZM4.37074 7.26709C4.37074 5.39004 5.93703 3.8684 7.86914 3.8684C9.80126 3.8684 11.3675 5.39004 11.3675 7.26709C11.3675 9.14414 9.80126 10.6658 7.86914 10.6658C5.93703 10.6658 4.37074 9.14414 4.37074 7.26709Z" fill="#F8F8F8"/>
<path fill-rule="evenodd" clip-rule="evenodd" d="M5.72902 0.790569C5.86628 0.747522 6.01599 0.764188 6.13968 0.836282L7.60057 1.68783C7.77963 1.68006 7.95897 1.68006 8.13804 1.68785L9.59285 0.842062C9.71552 0.77075 9.86374 0.75388 10 0.795716C10.9548 1.08874 11.8325 1.57985 12.5725 2.23503C12.6786 2.32895 12.738 2.46264 12.7356 2.60206L12.707 4.25178C12.8057 4.39896 12.8962 4.55113 12.9782 4.70765L14.4591 5.50754C14.5838 5.57489 14.6729 5.69081 14.704 5.82609C14.9219 6.77413 14.9242 7.75694 14.7107 8.70593C14.6801 8.84237 14.5904 8.95936 14.4646 9.02703L12.978 9.82693C12.896 9.98331 12.8056 10.1353 12.707 10.2824L12.7356 11.9321C12.738 12.0715 12.6786 12.2052 12.5725 12.2992C11.8341 12.9529 10.96 13.4454 10.0093 13.7436C9.872 13.7867 9.72229 13.77 9.5986 13.6979L8.13772 12.8463C7.95865 12.8541 7.77931 12.8541 7.60024 12.8463L6.14543 13.6921C6.02277 13.7634 5.87454 13.7803 5.73823 13.7385C4.78352 13.4454 3.90577 12.9543 3.16575 12.2992C3.05966 12.2052 3.00026 12.0715 3.00268 11.9321L3.0313 10.2861C2.93323 10.1374 2.8428 9.98407 2.76035 9.82668L1.27918 9.02664C1.15448 8.95929 1.06536 8.84337 1.03427 8.70809C0.816393 7.76005 0.814094 6.77724 1.02754 5.82825C1.05822 5.69181 1.1479 5.57482 1.27365 5.50715L2.76029 4.70725C2.84225 4.55087 2.9327 4.39883 3.03127 4.25178L3.00268 2.60206C3.00026 2.46264 3.05967 2.32893 3.16576 2.23501C3.90423 1.58126 4.77824 1.08874 5.72902 0.790569ZM4.00598 2.81035L4.03332 4.38824C4.03509 4.49046 4.0036 4.59062 3.94334 4.67443C3.80929 4.86088 3.69193 5.05814 3.59255 5.26406C3.54787 5.35663 3.47425 5.43314 3.38219 5.48267L1.96067 6.24754C1.83633 6.92194 1.83806 7.61263 1.96577 8.28644L3.3829 9.05189C3.47427 9.10124 3.54741 9.17719 3.59202 9.26903C3.69358 9.47812 3.81204 9.67906 3.94628 9.86996C4.00466 9.95296 4.03507 10.0515 4.03332 10.152L4.00599 11.7238C4.54618 12.1671 5.16392 12.5127 5.82977 12.744L7.21894 11.9364C7.30692 11.8852 7.40896 11.8616 7.51123 11.8687C7.74953 11.8853 7.98875 11.8853 8.22705 11.8687C8.32952 11.8616 8.43175 11.8853 8.51984 11.9367L9.91348 12.749C10.5772 12.514 11.1929 12.1669 11.7323 11.7238L11.705 10.1459C11.7032 10.0437 11.7347 9.94356 11.7949 9.85975C11.929 9.6733 12.0464 9.47604 12.1457 9.27012C12.1904 9.17755 12.264 9.10104 12.3561 9.0515L13.7776 8.28664C13.9019 7.61224 13.9002 6.92155 13.7725 6.24774L12.3554 5.48229C12.2636 5.43274 12.1903 5.35639 12.1457 5.26406C12.0464 5.05814 11.929 4.86088 11.7949 4.67443C11.7347 4.59062 11.7032 4.49046 11.705 4.38824L11.7323 2.81042C11.1921 2.36709 10.5744 2.02152 9.90851 1.7902L8.51935 2.59782C8.43137 2.64896 8.32932 2.67259 8.22705 2.66548C7.98875 2.64892 7.74953 2.64892 7.51123 2.66548C7.40876 2.6726 7.30653 2.64887 7.21844 2.59753L5.8248 1.78517C5.16112 2.02017 4.54537 2.36723 4.00598 2.81035Z" fill="#F8F8F8"/>
</svg>
